<svg width="17" height="11" viewBox="0 0 17 11" fill="none" xmlns="http://www.w3.org/2000/svg">
<path d="M10.1021 10.2632L10.6967 10.8224C10.9484 11.0592 11.3555 11.0592 11.6046 10.8224L16.8112 5.92821C17.0629 5.69144 17.0629 5.30856 16.8112 5.07431L11.6046 0.177582C11.3529 -0.059194 10.9458 -0.059194 10.6967 0.177582L10.1021 0.736776C9.84767 0.976071 9.85303 1.3665 10.1128 1.60076L13.3401 4.49244H0.642786C0.286576 4.49244 0 4.76197 0 5.09698V5.90302C0 6.23804 0.286576 6.50756 0.642786 6.50756H13.3401L10.1128 9.39925C9.85035 9.6335 9.845 10.0239 10.1021 10.2632Z" fill="#8BC603"/>
</svg>
